# xmcd
#
# Track frame offsets:
#	150
#	28397
#	56967
#	83856
#	114768
#	150840
#	166521
#	196898
#	222925
#	247481
#	277715
#	310774
#	338672
#
# Disc length: 4743 seconds
#
# Revision: 0
# Processed by: cddbd v1.4PL0 Copyright (c) Steve Scherf et al.
# Submitted via: audiograbber 1.81.03
#
DISCID=a812850d
DTITLE=Café Del Mar - Volumen Tres
DYEAR=1996
DGENRE=Ambient
TTITLE0=José Padilla - Walking On Air
TTITLE1=Nova Nova - Tones
TTITLE2=Pat Metheny - Sueno Con Mexico
TTITLE3=Afterlife - Bluebar
TTITLE4=Miro - Emotions Of Paradise
TTITLE5=Nightmares On Wax - Nights Interlude
TTITLE6=Eighth Wave - Panama Bazaar
TTITLE7=Pressure Drop - Dusk
TTITLE8=Alex Neri - Asia
TTITLE9=Moodswings - Redemption Song
TTITLE10=Fazed Idjuts Featuring Sally Rodgers - Dust Of Life
TTITLE11=Beat Foundation - My Freedom
TTITLE12=Heavyshift - Last Picture Show
EXTD=
EXTT0=
EXTT1=
EXTT2=
EXTT3=
EXTT4=
EXTT5=
EXTT6=
EXTT7=
EXTT8=
EXTT9=
EXTT10=
EXTT11=
EXTT12=
PLAYORDER=
